<svg width="1065" height="705" viewBox="0 0 1065 705" fill="none" xmlns="http://www.w3.org/2000/svg">
<path d="M344.771 244.459C344.771 211.158 328.537 190.724 291.432 190.724H162.336V149.854C162.336 145.313 165.428 139.259 172.385 139.259C179.343 139.259 182.435 145.313 182.435 149.854V171.046H344.771V53.7357C344.771 20.4347 328.537 0 291.432 0H53.339C16.2336 0 0 20.4347 0 53.7357V275.49C0 308.791 16.2336 329.226 53.339 329.226H182.435V401.882C182.435 406.423 179.343 412.478 172.385 412.478C165.428 412.478 162.336 406.423 162.336 401.882V345.876H0V497.244C0 530.545 16.2336 550.98 53.339 550.98H291.432C328.537 550.98 344.771 530.545 344.771 497.244V244.459ZM360.092 0C360.092 0 360.092 278.517 360.092 342.092C360.092 375.393 376.326 395.827 413.431 395.827H651.524C688.629 395.827 704.863 375.393 704.863 342.092C704.863 278.517 703.317 0 703.317 0H540.981L542.527 262.624C542.527 270.192 538.662 273.219 532.477 273.219C525.52 273.219 522.428 270.192 522.428 262.624L520.882 0H360.092ZM309.845 412.478V550.98H704.863V412.478H309.845ZM902.62 146.827V497.244C902.62 530.545 918.853 550.98 955.959 550.98H1064.95V53.7357C1064.95 20.4347 1048.72 0 1011.61 0H720.184V550.98H882.521V139.259H894.117C899.528 140.015 901.847 141.529 902.62 146.827Z" fill="white"/>
<path d="M91.7405 704.676C107.923 704.676 121.465 698.403 131.637 689.349L115.52 668.331C108.65 674.345 100.658 678.484 91.7405 678.484C76.548 678.484 62.2801 666.585 62.2801 650.417C62.2801 634.444 75.9534 622.221 92.3349 622.221C100.195 622.221 108.848 626.036 115.388 631.856L131.637 611.421C120.738 601.72 106.008 595.834 92.2689 595.64C59.1095 595.64 33.6124 619.375 33.6124 650.223C33.6124 682.947 61.6856 704.676 91.7405 704.676ZM192.804 705C225.964 705 251.329 681.395 251.329 650.352C251.329 619.051 225.964 595.317 192.871 595.317C159.777 595.317 134.412 619.051 134.412 650.352C134.412 681.395 159.711 705 192.804 705ZM192.871 678.549C175.961 678.549 163.013 666.197 163.013 650.158C163.013 634.055 175.961 621.639 192.871 621.639C209.781 621.639 222.727 634.055 222.727 650.158C222.727 666.197 209.781 678.549 192.871 678.549ZM334.228 623.837V597.839H265.2V702.478H293.141V663.869H326.961V640.717H293.141V623.837H334.228ZM415.342 623.837V597.839H346.315V702.478H374.256V663.869H408.076V640.717H374.256V623.837H415.342ZM496.457 623.837V598.098H427.431V702.348H496.457V676.415H455.372V661.476H489.192V638.389H455.372V623.837H496.457ZM581.272 623.837V598.098H512.244V702.348H581.272V676.415H540.185V661.476H574.005V638.389H540.185V623.837H581.272ZM671.634 703.771C692.97 703.771 711.861 691.418 711.861 671.565C711.861 656.172 700.83 646.213 684.185 639.358C672.691 634.637 665.161 633.085 665.161 628.3C665.161 624.743 669.323 621.833 675.135 621.833C680.221 621.833 688.413 624.225 691.583 629.722L707.899 614.331C703.737 604.048 691.054 596.546 674.805 596.546C654.593 596.546 637.087 609.416 637.087 627.459C637.087 643.174 648.647 651.84 662.123 657.531C672.559 662.058 683.458 666.779 683.458 672.146C683.458 676.415 677.58 678.549 671.568 678.549C662.65 678.549 654.395 674.669 649.968 668.267L632.86 684.693C638.211 696.204 654.13 703.771 671.634 703.771ZM784.72 598.098V637.224H753.079V598.098H724.809V702.348H753.079V663.093H784.72V702.348H812.925V598.098H784.72ZM885.189 705C918.349 705 943.714 681.395 943.714 650.352C943.714 619.051 918.349 595.317 885.256 595.317C852.162 595.317 826.797 619.051 826.797 650.352C826.797 681.395 852.096 705 885.189 705ZM885.256 678.549C868.346 678.549 855.398 666.197 855.398 650.158C855.398 634.055 868.346 621.639 885.256 621.639C902.166 621.639 915.112 634.055 915.112 650.158C915.112 666.197 902.166 678.549 885.256 678.549ZM957.585 702.348H985.853V671.629H997.815C1020.14 671.629 1038.04 654.75 1038.04 634.637C1038.04 614.266 1019.74 598.098 997.815 598.098H957.585V702.348ZM997.815 646.149L985.853 646.084V623.644H997.815C1005.34 623.644 1010.76 628.429 1010.76 634.766C1010.76 641.169 1005.41 646.213 997.815 646.149Z" fill="#FFA439"/>
</svg>
